<svg xmlns="http://www.w3.org/2000/svg" version="1.1" xmlns:xlink="http://www.w3.org/1999/xlink" xmlns:svgjs="http://svgjs.com/svgjs" width="1440" height="560" preserveAspectRatio="none" viewBox="0 0 1440 560">
    <g mask="url(&quot;#SvgjsMask1627&quot;)" fill="none">
        <g mask="url(&quot;#SvgjsMask1629&quot;)">
            <path d="M852 396L876 420L900 444L924 468M876 396L900 372L924 372M228 300L252 276L276 276L300 276L324 252M132 300L156 276L180 276L204 276L228 276L252 252L276 252L300 252L324 228M204 300L228 324M372 300L396 300L420 300L444 300L468 300L492 276M708 396L732 372L756 372L780 372L804 372L828 372L852 372L876 372M108 276L132 276M156 300L180 324L204 324M-12 276L12 276L36 276L60 276L84 276L108 276L132 300L156 300L180 300L204 300L228 300L252 300L276 300L300 300L324 300L348 300L372 300L396 324L420 324L444 324L468 324L492 324L516 324L540 324L564 348L588 348L612 372L636 396L660 396L684 396L708 396L732 396L756 396L780 396L804 396L828 396L852 396L876 396L900 396" stroke="url(#SvgjsRadialGradient1628)" stroke-width="4"></path>
            <path d="M894 396 a6 6 0 1 0 12 0 a6 6 0 1 0 -12 0zM918 468 a6 6 0 1 0 12 0 a6 6 0 1 0 -12 0zM918 372 a6 6 0 1 0 12 0 a6 6 0 1 0 -12 0zM318 252 a6 6 0 1 0 12 0 a6 6 0 1 0 -12 0zM318 228 a6 6 0 1 0 12 0 a6 6 0 1 0 -12 0zM222 324 a6 6 0 1 0 12 0 a6 6 0 1 0 -12 0zM486 276 a6 6 0 1 0 12 0 a6 6 0 1 0 -12 0zM870 372 a6 6 0 1 0 12 0 a6 6 0 1 0 -12 0zM126 276 a6 6 0 1 0 12 0 a6 6 0 1 0 -12 0zM198 324 a6 6 0 1 0 12 0 a6 6 0 1 0 -12 0z" fill="url(#SvgjsRadialGradient1628)"></path>
            <path d="M-12 300L12 300L36 300L60 300L84 300L108 300L132 324" stroke="url(#SvgjsRadialGradient1628)" stroke-width="4"></path>
            <path d="M126 324 a6 6 0 1 0 12 0 a6 6 0 1 0 -12 0z" fill="url(#SvgjsRadialGradient1628)"></path>
            <path d="M-12 252L12 252L36 252L60 252" stroke="url(#SvgjsRadialGradient1628)" stroke-width="4"></path>
            <path d="M54 252 a6 6 0 1 0 12 0 a6 6 0 1 0 -12 0z" fill="url(#SvgjsRadialGradient1628)"></path>
            <path d="M228 348L252 348L276 348M324 372L348 348M300 372L324 348L348 324L372 324M348 372L372 372L396 372L420 372L444 372M-12 324L12 324L36 324L60 324L84 324L108 324L132 348L156 348L180 348L204 348L228 348L252 372L276 372L300 372L324 372L348 372L372 348" stroke="url(#SvgjsRadialGradient1628)" stroke-width="4"></path>
            <path d="M366 348 a6 6 0 1 0 12 0 a6 6 0 1 0 -12 0zM270 348 a6 6 0 1 0 12 0 a6 6 0 1 0 -12 0zM342 348 a6 6 0 1 0 12 0 a6 6 0 1 0 -12 0zM366 324 a6 6 0 1 0 12 0 a6 6 0 1 0 -12 0zM438 372 a6 6 0 1 0 12 0 a6 6 0 1 0 -12 0z" fill="url(#SvgjsRadialGradient1628)"></path>
            <path d="M204 204L228 228M228 204L252 180L276 180L300 180L324 180M132 204L156 228L180 228M-12 228L12 228L36 228L60 228L84 228L108 204L132 204L156 204L180 204L204 204L228 204L252 204" stroke="url(#SvgjsRadialGradient1628)" stroke-width="4"></path>
            <path d="M246 204 a6 6 0 1 0 12 0 a6 6 0 1 0 -12 0zM222 228 a6 6 0 1 0 12 0 a6 6 0 1 0 -12 0zM318 180 a6 6 0 1 0 12 0 a6 6 0 1 0 -12 0zM174 228 a6 6 0 1 0 12 0 a6 6 0 1 0 -12 0z" fill="url(#SvgjsRadialGradient1628)"></path>
            <path d="M468 396L492 420L516 420L540 420L564 420L588 420L612 420L636 444M708 420L732 444L756 444M492 396L516 372M12 348L36 372L60 372L84 372L108 372M516 396L540 396L564 396L588 396M444 396L468 420M420 396L444 420M684 420L708 444L732 468L756 468L780 492L804 492L828 492L852 492L876 492M-12 348L12 348L36 348L60 348L84 348L108 348L132 372L156 372L180 372L204 372L228 372L252 396L276 396L300 396L324 396L348 396L372 396L396 396L420 396L444 396L468 396L492 396L516 396L540 372L564 372L588 372L612 396L636 420L660 420L684 420L708 420L732 420L756 420L780 420" stroke="url(#SvgjsRadialGradient1628)" stroke-width="4"></path>
            <path d="M774 420 a6 6 0 1 0 12 0 a6 6 0 1 0 -12 0zM630 444 a6 6 0 1 0 12 0 a6 6 0 1 0 -12 0zM750 444 a6 6 0 1 0 12 0 a6 6 0 1 0 -12 0zM510 372 a6 6 0 1 0 12 0 a6 6 0 1 0 -12 0zM102 372 a6 6 0 1 0 12 0 a6 6 0 1 0 -12 0zM582 396 a6 6 0 1 0 12 0 a6 6 0 1 0 -12 0zM462 420 a6 6 0 1 0 12 0 a6 6 0 1 0 -12 0zM438 420 a6 6 0 1 0 12 0 a6 6 0 1 0 -12 0zM870 492 a6 6 0 1 0 12 0 a6 6 0 1 0 -12 0z" fill="url(#SvgjsRadialGradient1628)"></path>
            <path d="M324 132L348 132L372 132L396 156M300 132L324 156L348 156L372 156M132 156L156 156M180 132L204 156L228 156M-12 204L12 204L36 204L60 204L84 204L108 180L132 156L156 132L180 132L204 132L228 132L252 132L276 132L300 132L324 132L348 108L372 108" stroke="url(#SvgjsRadialGradient1628)" stroke-width="4"></path>
            <path d="M366 108 a6 6 0 1 0 12 0 a6 6 0 1 0 -12 0zM390 156 a6 6 0 1 0 12 0 a6 6 0 1 0 -12 0zM366 156 a6 6 0 1 0 12 0 a6 6 0 1 0 -12 0zM150 156 a6 6 0 1 0 12 0 a6 6 0 1 0 -12 0zM222 156 a6 6 0 1 0 12 0 a6 6 0 1 0 -12 0z" fill="url(#SvgjsRadialGradient1628)"></path>
            <path d="M132 396L156 420M420 444L444 468L468 468L492 492L516 492L540 492L564 492L588 492L612 492M396 420L420 420M492 444L516 468L540 468M348 420L372 444L396 444M324 420L348 444M-12 372L12 396L36 396L60 396L84 396L108 396L132 396L156 396L180 396L204 396L228 396L252 420L276 420L300 420L324 420L348 420L372 420L396 420L420 444L444 444L468 444L492 444L516 444L540 444" stroke="url(#SvgjsRadialGradient1628)" stroke-width="4"></path>
            <path d="M534 444 a6 6 0 1 0 12 0 a6 6 0 1 0 -12 0zM150 420 a6 6 0 1 0 12 0 a6 6 0 1 0 -12 0zM606 492 a6 6 0 1 0 12 0 a6 6 0 1 0 -12 0zM414 420 a6 6 0 1 0 12 0 a6 6 0 1 0 -12 0zM534 468 a6 6 0 1 0 12 0 a6 6 0 1 0 -12 0zM390 444 a6 6 0 1 0 12 0 a6 6 0 1 0 -12 0zM342 444 a6 6 0 1 0 12 0 a6 6 0 1 0 -12 0z" fill="url(#SvgjsRadialGradient1628)"></path>
            <path d="M276 108L300 84L324 84M468 108L492 132M492 108L516 84L540 84M396 108L420 132L444 132L468 132L492 156M252 108L276 84M444 108L468 84L492 84M-12 180L12 180L36 180L60 180L84 180L108 156L132 132L156 108L180 108L204 108L228 108L252 108L276 108L300 108L324 108L348 84L372 84L396 108L420 108L444 108L468 108L492 108L516 108L540 108L564 108" stroke="url(#SvgjsRadialGradient1628)" stroke-width="4"></path>
            <path d="M558 108 a6 6 0 1 0 12 0 a6 6 0 1 0 -12 0zM318 84 a6 6 0 1 0 12 0 a6 6 0 1 0 -12 0zM486 132 a6 6 0 1 0 12 0 a6 6 0 1 0 -12 0zM534 84 a6 6 0 1 0 12 0 a6 6 0 1 0 -12 0zM486 156 a6 6 0 1 0 12 0 a6 6 0 1 0 -12 0zM270 84 a6 6 0 1 0 12 0 a6 6 0 1 0 -12 0zM486 84 a6 6 0 1 0 12 0 a6 6 0 1 0 -12 0z" fill="url(#SvgjsRadialGradient1628)"></path>
            <path d="M228 444L252 468L276 492L300 492M12 420L36 444L60 444L84 468M252 444L276 444L300 444L324 444M324 468L348 492M-12 396L12 420L36 420L60 420L84 420L108 420L132 444L156 444L180 420L204 420L228 444L252 444L276 468L300 468L324 468L348 468" stroke="url(#SvgjsRadialGradient1628)" stroke-width="4"></path>
            <path d="M342 468 a6 6 0 1 0 12 0 a6 6 0 1 0 -12 0zM294 492 a6 6 0 1 0 12 0 a6 6 0 1 0 -12 0zM78 468 a6 6 0 1 0 12 0 a6 6 0 1 0 -12 0zM318 444 a6 6 0 1 0 12 0 a6 6 0 1 0 -12 0zM342 492 a6 6 0 1 0 12 0 a6 6 0 1 0 -12 0z" fill="url(#SvgjsRadialGradient1628)"></path>
            <path d="M12 156L36 132L60 132L84 108L108 108M372 60L396 60L420 60M204 84L228 60M420 84L444 84M180 84L204 60M-12 156L12 156L36 156L60 156L84 132L108 132L132 108L156 84L180 84L204 84L228 84L252 60L276 60L300 60L324 60L348 60L372 60L396 84L420 84L444 60L468 60L492 60" stroke="url(#SvgjsRadialGradient1628)" stroke-width="4"></path>
            <path d="M486 60 a6 6 0 1 0 12 0 a6 6 0 1 0 -12 0zM102 108 a6 6 0 1 0 12 0 a6 6 0 1 0 -12 0zM414 60 a6 6 0 1 0 12 0 a6 6 0 1 0 -12 0zM222 60 a6 6 0 1 0 12 0 a6 6 0 1 0 -12 0zM438 84 a6 6 0 1 0 12 0 a6 6 0 1 0 -12 0zM198 60 a6 6 0 1 0 12 0 a6 6 0 1 0 -12 0z" fill="url(#SvgjsRadialGradient1628)"></path>
        </g>
    </g>
    <defs>
        <mask id="SvgjsMask1627">
            <rect width="1440" height="560" fill="#ffffff"></rect>
        </mask>
        <radialGradient cx="0" cy="280" r="1004.61" gradientUnits="userSpaceOnUse" id="SvgjsRadialGradient1628">
            <stop stop-color="rgba(30, 125, 165, 0.71)" offset="0.13"></stop>
            <stop stop-color="rgba(135, 18, 18, 0.51)" offset="0.31"></stop>
            <stop stop-color="rgba(234, 0, 0, 0.53)" offset="0.6"></stop>
            <stop stop-color="rgba(124, 121, 121, 0.4)" offset="0.96"></stop>
            <stop stop-color="rgba(105, 36, 36, 0.23)" offset="1"></stop>
        </radialGradient>
        <mask id="SvgjsMask1629">
            <rect width="1440" height="560" fill="white"></rect>
            <path d="M897 396 a3 3 0 1 0 6 0 a3 3 0 1 0 -6 0zM921 468 a3 3 0 1 0 6 0 a3 3 0 1 0 -6 0zM921 372 a3 3 0 1 0 6 0 a3 3 0 1 0 -6 0zM321 252 a3 3 0 1 0 6 0 a3 3 0 1 0 -6 0zM321 228 a3 3 0 1 0 6 0 a3 3 0 1 0 -6 0zM225 324 a3 3 0 1 0 6 0 a3 3 0 1 0 -6 0zM489 276 a3 3 0 1 0 6 0 a3 3 0 1 0 -6 0zM873 372 a3 3 0 1 0 6 0 a3 3 0 1 0 -6 0zM129 276 a3 3 0 1 0 6 0 a3 3 0 1 0 -6 0zM201 324 a3 3 0 1 0 6 0 a3 3 0 1 0 -6 0z" fill="black"></path>
            <path d="M129 324 a3 3 0 1 0 6 0 a3 3 0 1 0 -6 0z" fill="black"></path>
            <path d="M57 252 a3 3 0 1 0 6 0 a3 3 0 1 0 -6 0z" fill="black"></path>
            <path d="M369 348 a3 3 0 1 0 6 0 a3 3 0 1 0 -6 0zM273 348 a3 3 0 1 0 6 0 a3 3 0 1 0 -6 0zM345 348 a3 3 0 1 0 6 0 a3 3 0 1 0 -6 0zM369 324 a3 3 0 1 0 6 0 a3 3 0 1 0 -6 0zM441 372 a3 3 0 1 0 6 0 a3 3 0 1 0 -6 0z" fill="black"></path>
            <path d="M249 204 a3 3 0 1 0 6 0 a3 3 0 1 0 -6 0zM225 228 a3 3 0 1 0 6 0 a3 3 0 1 0 -6 0zM321 180 a3 3 0 1 0 6 0 a3 3 0 1 0 -6 0zM177 228 a3 3 0 1 0 6 0 a3 3 0 1 0 -6 0z" fill="black"></path>
            <path d="M777 420 a3 3 0 1 0 6 0 a3 3 0 1 0 -6 0zM633 444 a3 3 0 1 0 6 0 a3 3 0 1 0 -6 0zM753 444 a3 3 0 1 0 6 0 a3 3 0 1 0 -6 0zM513 372 a3 3 0 1 0 6 0 a3 3 0 1 0 -6 0zM105 372 a3 3 0 1 0 6 0 a3 3 0 1 0 -6 0zM585 396 a3 3 0 1 0 6 0 a3 3 0 1 0 -6 0zM465 420 a3 3 0 1 0 6 0 a3 3 0 1 0 -6 0zM441 420 a3 3 0 1 0 6 0 a3 3 0 1 0 -6 0zM873 492 a3 3 0 1 0 6 0 a3 3 0 1 0 -6 0z" fill="black"></path>
            <path d="M369 108 a3 3 0 1 0 6 0 a3 3 0 1 0 -6 0zM393 156 a3 3 0 1 0 6 0 a3 3 0 1 0 -6 0zM369 156 a3 3 0 1 0 6 0 a3 3 0 1 0 -6 0zM153 156 a3 3 0 1 0 6 0 a3 3 0 1 0 -6 0zM225 156 a3 3 0 1 0 6 0 a3 3 0 1 0 -6 0z" fill="black"></path>
            <path d="M537 444 a3 3 0 1 0 6 0 a3 3 0 1 0 -6 0zM153 420 a3 3 0 1 0 6 0 a3 3 0 1 0 -6 0zM609 492 a3 3 0 1 0 6 0 a3 3 0 1 0 -6 0zM417 420 a3 3 0 1 0 6 0 a3 3 0 1 0 -6 0zM537 468 a3 3 0 1 0 6 0 a3 3 0 1 0 -6 0zM393 444 a3 3 0 1 0 6 0 a3 3 0 1 0 -6 0zM345 444 a3 3 0 1 0 6 0 a3 3 0 1 0 -6 0z" fill="black"></path>
            <path d="M561 108 a3 3 0 1 0 6 0 a3 3 0 1 0 -6 0zM321 84 a3 3 0 1 0 6 0 a3 3 0 1 0 -6 0zM489 132 a3 3 0 1 0 6 0 a3 3 0 1 0 -6 0zM537 84 a3 3 0 1 0 6 0 a3 3 0 1 0 -6 0zM489 156 a3 3 0 1 0 6 0 a3 3 0 1 0 -6 0zM273 84 a3 3 0 1 0 6 0 a3 3 0 1 0 -6 0zM489 84 a3 3 0 1 0 6 0 a3 3 0 1 0 -6 0z" fill="black"></path>
            <path d="M345 468 a3 3 0 1 0 6 0 a3 3 0 1 0 -6 0zM297 492 a3 3 0 1 0 6 0 a3 3 0 1 0 -6 0zM81 468 a3 3 0 1 0 6 0 a3 3 0 1 0 -6 0zM321 444 a3 3 0 1 0 6 0 a3 3 0 1 0 -6 0zM345 492 a3 3 0 1 0 6 0 a3 3 0 1 0 -6 0z" fill="black"></path>
            <path d="M489 60 a3 3 0 1 0 6 0 a3 3 0 1 0 -6 0zM105 108 a3 3 0 1 0 6 0 a3 3 0 1 0 -6 0zM417 60 a3 3 0 1 0 6 0 a3 3 0 1 0 -6 0zM225 60 a3 3 0 1 0 6 0 a3 3 0 1 0 -6 0zM441 84 a3 3 0 1 0 6 0 a3 3 0 1 0 -6 0zM201 60 a3 3 0 1 0 6 0 a3 3 0 1 0 -6 0z" fill="black"></path>
        </mask>
    </defs>
</svg>