<svg xmlns="http://www.w3.org/2000/svg" version="1.1" xmlns:xlink="http://www.w3.org/1999/xlink" xmlns:svgjs="http://svgjs.com/svgjs" width="1440" height="560" preserveAspectRatio="none" viewBox="0 0 1440 560">
    <g mask="url(&quot;#SvgjsMask1001&quot;)" fill="none">
        <rect width="1440" height="560" x="0" y="0" fill="rgba(12, 12, 12, 0.42)"></rect>
        <path d="M0 60C19.56 22.18 31.68 17.45 72.41 0C101.68 -12.55 106.2 0 140 0C177.69 0 178.91 -6.53 215.38 0C248.91 6 249.64 25.07 280 25.07C297.5 25.07 292.32 3.36 311.11 0C362.32 -9.17 365.56 0 420 0C490 0 490 0 560 0C630 0 630 0 700 0C770 0 770 0 840 0C910 0 910 0 980 0C1043.22 0 1054.56 -15.57 1106.45 0C1124.56 5.43 1102.57 31.04 1120 42C1179.34 79.31 1206.54 108.9 1260 96.55C1297.43 87.9 1265.59 24.97 1301.79 0C1335.59 -23.31 1350.89 0 1400 0C1463.27 0 1465.07 -4.96 1526.54 0C1535.07 0.69 1539.19 2.88 1540 11.29C1545.92 72.88 1540 75.64 1540 140C1540 210 1540 210 1540 280C1540 350 1540 350 1540 420C1540 490 1575 525 1540 560C1505 595 1470 560 1400 560C1354.28 560 1349.03 573.23 1308.57 560C1279.03 550.34 1288.79 514.23 1260 514.23C1205 514.23 1201.1 540.35 1141 560C1131.1 563.24 1130.5 560 1120 560C1090 560 1089.6 563.7 1060 560C1019.6 554.95 1015.6 542.5 980 542.5C971.65 542.5 980.99 558.89 972.11 560C910.99 567.64 906.06 560 840 560C770 560 770 560 700 560C638.89 560 636.26 566.78 577.78 560C566.26 558.66 571.26 543.77 560 543.77C515.7 543.77 513.57 554.56 466.67 560C443.57 562.68 443.34 560 420 560C350 560 350 560 280 560C210 560 210 560 140 560C70 560 35 595 0 560C-35 525 0 490 0 420C0 359.25 -7.61 356.09 0 298.49C1.64 286.09 18.49 290.71 18.49 280C18.49 263.31 2.61 263.44 0 243.7C-6.64 193.44 0 191.85 0 140C0 100 -16.64 92.18 0 60" stroke="rgba(176, 196, 218, 0.58)" stroke-width="2"></path>
        <path d="M140 93.33C125.79 93.33 103.7 120.71 103.7 140C103.7 153.29 123.69 158.49 140 158.49C149.74 158.49 155.81 150.77 155.81 140C155.81 118.19 151.84 93.33 140 93.33" stroke="rgba(176, 196, 218, 0.58)" stroke-width="2"></path>
        <path d="M1400 98.21C1356.47 98.21 1303.45 118.25 1303.45 140C1303.45 162.1 1357.06 185.9 1400 185.9C1423.52 185.9 1436.36 162.53 1436.36 140C1436.36 118.69 1422.92 98.21 1400 98.21" stroke="rgba(176, 196, 218, 0.58)" stroke-width="2"></path>
        <path d="M840 245C818.67 245 796.73 262.8 796.73 280C796.73 296.83 818.65 313.06 840 313.06C860.45 313.06 880.34 296.81 880.34 280C880.34 262.78 860.47 245 840 245" stroke="rgba(176, 196, 218, 0.58)" stroke-width="2"></path>
        <path d="M212.26 140C244.01 106.61 244.95 107.29 280 77.31C326.79 37.29 324.37 28.47 375.93 0C394.37 -10.18 397.97 0 420 0C490 0 490 0 560 0C630 0 630 0 700 0C758.34 0 760.94 -7.43 816.67 0C830.94 1.9 829.21 18.67 840 18.67C848.88 18.67 844.42 1.54 856 0C914.42 -7.79 918 0 980 0C1015 0 1050 -19.87 1050 0C1050 38.78 1018.38 61.48 980 117.3C970.25 131.48 968.89 131.75 953.75 140C898.89 169.87 896.56 193.53 840 193.53C786.15 193.53 781.79 172.64 732.94 140C711.79 125.87 721.02 100 700 100C661.47 100 613.85 117.42 613.85 140C613.85 164.09 668.88 156.79 700 193.33C728.5 226.79 704.52 245.65 733.09 280C774.52 329.82 787.24 361.67 840 361.67C890.53 361.67 902.07 329.72 939.66 280C972.07 237.14 940.19 196.8 980 176.52C1030.36 150.87 1050.02 188.37 1120 188.13C1190.02 187.89 1193.54 162.47 1260 175.56C1333.54 190.04 1339.96 252.91 1400 243.28C1450.87 235.13 1440.74 191.51 1481.82 140C1510.74 103.74 1523.65 67.74 1540 67.74C1552.74 67.74 1540 103.87 1540 140C1540 210 1540 210 1540 280C1540 305.66 1548.28 307.81 1540 331.33C1523.65 377.81 1512.26 374.16 1490.74 420C1458.59 488.5 1469.99 502.41 1432.67 560C1424.62 572.41 1416.34 560 1400 560C1390 560 1387.57 566.12 1380 560C1317.57 509.58 1330.3 477.76 1260 446.92C1200.3 420.73 1189.86 449.37 1120 445.93C1049.86 442.48 1029.55 404.47 980 433.13C930.96 461.5 966.7 520.23 922.82 560C896.7 583.67 881.41 560 840 560C770 560 770 560 700 560C666.66 560 661.45 573.45 633.33 560C591.45 539.97 602.38 517.38 560 493.04C495.72 456.13 469.61 419.57 420 437.5C376.99 453.05 415.33 524.51 374.77 560C345.33 585.76 327.38 560 280 560C210 560 210 560 140 560C70 560 35 595 0 560C-35 525 0 490 0 420C0 392.26 -13.21 364.53 0 364.53C20.97 364.53 38.74 387.89 68.37 420C108.74 463.75 95.23 513.78 140 516.25C201.04 519.62 206.39 463.88 280 431.67C316.39 415.75 346.59 447.74 360 420C383.25 371.91 378.52 335.91 353.33 280C338.52 247.13 314.88 242.44 280 242.44C254.16 242.44 256.22 261.58 231.88 280C186.22 314.55 181.65 348.37 140 348.37C107.98 348.37 84.53 312.74 84.53 280C84.53 250.82 113.58 253.48 140 224.53C177.45 183.48 174.01 180.22 212.26 140" stroke="rgba(176, 196, 218, 0.58)" stroke-width="2"></path>
        <path d="M1400 45.97C1375.57 45.97 1354.03 13.46 1354.03 0C1354.03 -9.52 1377.01 0 1400 0C1429.61 0 1459.23 -10.14 1459.23 0C1459.23 12.84 1428.17 45.97 1400 45.97" stroke="rgba(176, 196, 218, 0.58)" stroke-width="2"></path>
        <path d="M268.71 140C268.71 134.1 272.78 129.55 280 129.55C310.25 129.55 343.64 133.19 343.64 140C343.64 146.95 308.59 157.07 280 157.07C271.12 157.07 268.71 147.86 268.71 140" stroke="rgba(176, 196, 218, 0.58)" stroke-width="2"></path>
        <path d="M835.88 140C835.88 138.07 837.9 135.33 840 135.33C842.15 135.33 844.38 138.08 844.38 140C844.38 141.45 842.18 142.06 840 142.06C837.93 142.06 835.88 141.43 835.88 140" stroke="rgba(176, 196, 218, 0.58)" stroke-width="2"></path>
        <path d="M980 22.7C969.57 22.7 956 6.57 956 0C956 -4.78 968 0 980 0C986.78 0 993.55 -3.85 993.55 0C993.55 7.5 988.35 22.7 980 22.7" stroke="rgba(176, 196, 218, 0.58)" stroke-width="2"></path>
        <path d="M1527.27 140C1527.27 130.77 1536.42 124.19 1540 124.19C1542.79 124.19 1540 132.1 1540 140C1540 163.33 1543.13 186.67 1540 186.67C1536.76 186.67 1527.27 162.01 1527.27 140" stroke="rgba(176, 196, 218, 0.58)" stroke-width="2"></path>
        <path d="M485.63 280C495.15 238.33 522.04 215.68 560 215.68C600.26 215.68 632.59 237.22 642.07 280C655.23 339.38 635.71 359.83 605.29 420C594.68 440.99 582.71 442.32 560 442.32C536.73 442.32 523.22 441.59 513.33 420C486.04 360.43 471.81 340.49 485.63 280" stroke="rgba(176, 196, 218, 0.58)" stroke-width="2"></path>
        <path d="M1141.54 280C1141.54 248.98 1201.58 231.11 1260 231.11C1310.48 231.11 1318.23 246.16 1359.35 280C1388.23 303.77 1383.39 311.39 1400 346.32C1416.68 381.39 1425.93 384.07 1425.93 420C1425.93 445.91 1417.56 470 1400 470C1376.59 470 1373.78 442.71 1344 420C1303.78 389.33 1301.69 392.07 1260 363.24C1200.46 322.07 1141.54 315.05 1141.54 280" stroke="rgba(176, 196, 218, 0.58)" stroke-width="2"></path>
        <path d="M815 420C824.91 411.17 827.47 410.28 840 410.28C852.94 410.28 863.17 407.65 865.93 420C879.93 482.51 883.98 503.51 873.52 560C871.02 573.51 856.76 560 840 560C770 560 770 560 700 560C694.44 560 688.89 563.61 688.89 560C688.89 551.11 690.92 545.08 700 535C753.98 475.08 754.91 473.53 815 420" stroke="rgba(176, 196, 218, 0.58)" stroke-width="2"></path>
        <path d="M201.76 560C201.76 544.74 245.33 504.58 280 504.58C304.91 504.58 320.92 542.62 320.92 560C320.92 570.33 300.46 560 280 560C240.88 560 201.76 572.45 201.76 560" stroke="rgba(176, 196, 218, 0.58)" stroke-width="2"></path>
    </g>
    <defs>
        <mask id="SvgjsMask1001">
            <rect width="1440" height="560" fill="#ffffff"></rect>
        </mask>
    </defs>
</svg>